<svg xmlns="http://www.w3.org/2000/svg" viewBox="-16 -16 472 162" fill="currentColor" style="color:#f4f4f2"><g><path fill-rule="evenodd" d="M0,10 H20 V45 H72 V130 H0 Z M20,65 H52 V110 H20 Z"></path><path d="M88,45 H132 V65 H108 V130 H88 Z"></path><path d="M148,45 H212 V130 H148 V80 H168 V110 H192 V65 H148 V45 Z"></path><path d="M228,45 H248 V130 H228 Z M228,10 H248 V30 H228 Z"></path><path d="M264,45 H334 V130 H314 V65 H284 V130 H264 Z"></path><path fill-rule="evenodd" d="M350,10 L416,10 L440,34 L440,130 L350,130 Z M370,30 L420,30 L420,110 L370,110 Z"></path><polygon points="411.52,24.70 428.48,35.30 378.48,115.30 361.52,104.70"></polygon></g></svg>